<?xml version="1.0" encoding="UTF-8"?>
<svg xmlns="http://www.w3.org/2000/svg" xmlns:xlink="http://www.w3.org/1999/xlink" viewBox="0 0 28 28" width="28px" height="28px">
<g id="surface30669045">
<path style=" stroke:none;fill-rule:nonzero;fill:rgb(100%,100%,100%);fill-opacity:1;" d="M 14 2.332031 C 7.566406 2.332031 2.332031 7.566406 2.332031 14 C 2.332031 20.433594 7.566406 25.667969 14 25.667969 C 20.433594 25.667969 25.667969 20.433594 25.667969 14 C 25.667969 7.566406 20.433594 2.332031 14 2.332031 Z M 14 4.082031 C 19.488281 4.082031 23.917969 8.511719 23.917969 14 C 23.917969 19.488281 19.488281 23.917969 14 23.917969 C 8.511719 23.917969 4.082031 19.488281 4.082031 14 C 4.082031 8.511719 8.511719 4.082031 14 4.082031 Z M 18.359375 10.492188 C 18.128906 10.5 17.914062 10.59375 17.757812 10.757812 L 12.542969 15.972656 L 10.242188 13.671875 C 10.023438 13.445312 9.699219 13.351562 9.390625 13.433594 C 9.085938 13.511719 8.84375 13.75 8.765625 14.058594 C 8.6875 14.363281 8.777344 14.691406 9.007812 14.910156 L 11.921875 17.828125 C 12.265625 18.167969 12.820312 18.167969 13.160156 17.828125 L 18.992188 11.992188 C 19.253906 11.742188 19.328125 11.359375 19.1875 11.027344 C 19.046875 10.695312 18.71875 10.480469 18.359375 10.492188 Z M 18.359375 10.492188 "/>
</g>
</svg>
