<?xml version="1.0" encoding="UTF-8"?>
<svg xmlns="http://www.w3.org/2000/svg" xmlns:xlink="http://www.w3.org/1999/xlink" viewBox="0 0 28 28" width="28px" height="28px">
<g id="surface62153985">
<path style=" stroke:none;fill-rule:nonzero;fill:rgb(100%,100%,100%);fill-opacity:1;" d="M 21 2.921875 C 19.953125 2.921875 18.90625 3.320312 18.113281 4.113281 L 5.199219 17.023438 C 4.957031 17.269531 4.777344 17.574219 4.679688 17.90625 L 2.949219 23.96875 C 2.863281 24.273438 2.949219 24.601562 3.171875 24.828125 C 3.398438 25.050781 3.726562 25.136719 4.03125 25.050781 L 10.09375 23.320312 C 10.09375 23.316406 10.09375 23.316406 10.09375 23.316406 C 10.425781 23.222656 10.730469 23.042969 10.976562 22.800781 L 23.886719 9.886719 C 25.472656 8.300781 25.472656 5.699219 23.886719 4.113281 C 23.09375 3.320312 22.046875 2.921875 21 2.921875 Z M 21 4.660156 C 21.59375 4.660156 22.191406 4.890625 22.648438 5.351562 C 23.570312 6.269531 23.570312 7.730469 22.648438 8.648438 L 21.519531 9.78125 L 18.21875 6.480469 L 19.351562 5.351562 C 19.808594 4.890625 20.40625 4.660156 21 4.660156 Z M 16.980469 7.71875 L 20.28125 11.019531 L 9.738281 21.5625 C 9.703125 21.59375 9.660156 21.621094 9.609375 21.636719 L 5.066406 22.933594 L 6.363281 18.386719 C 6.378906 18.339844 6.402344 18.296875 6.4375 18.261719 Z M 16.980469 7.71875 "/>
</g>
</svg>
